# xmcd
#
# Track frame offsets:
#	150
#	19004
#	43951
#	63197
#	92163
#	108553
#	134245
#	156615
#	174377
#	195921
#	208932
#	234516
#	256918
#	272172
#	286470
#	317116
#
# Disc length: 4701 seconds
#
# Revision: 1
# Processed by: cddbd v1.5.2PL0 Copyright (c) Steve Scherf et al.
# Submitted via: audiograbber 1.83.01
#
DISCID=f4125b10
DTITLE=Various Artist - The 1st Floor Blues Night
DYEAR=1900
DGENRE=Blues
TTITLE0=Gary Moore - Still Got The Blues
TTITLE1=Kenny Wayne Sheperd Band - Blue On Black
TTITLE2=Sanne - Back To My Baby
TTITLE3=Hooker - Van Morrison - Medley
TTITLE4=Larry McCray - Witchin' Moon
TTITLE5=Eric Clapton - Hoodoo Man
TTITLE6=Gary Moore - Midnight Blues
TTITLE7=The Jeff Healey Band - Hell To Pay
TTITLE8=John Lee Hooker - Chill Out (Things Gonna Change)
TTITLE9=Since I Met You Baby - B. B. King
TTITLE10=Eric Clapton - Watch Yourself
TTITLE11=Mighty Sam McClain - Here I Go Falling In Love Again
TTITLE12=Terry Evans - Too Many Cooks
TTITLE13=John Lee Hooker - Kiddio
TTITLE14=Gary Moore - Parisienne Walkways
TTITLE15=Walter Trout Band - Say Goodbye To The Blues
EXTD=
EXTT0=
EXTT1=
EXTT2=
EXTT3=
EXTT4=
EXTT5=
EXTT6=
EXTT7=
EXTT8=
EXTT9=
EXTT10=
EXTT11=
EXTT12=
EXTT13=
EXTT14=
EXTT15=
PLAYORDER=
